<?xml version="1.0" encoding="UTF-8" standalone="no"?>
<svg
   xmlns:dc="http://purl.org/dc/elements/1.1/"
   xmlns:cc="http://creativecommons.org/ns#"
   xmlns:rdf="http://www.w3.org/1999/02/22-rdf-syntax-ns#"
   xmlns:svg="http://www.w3.org/2000/svg"
   xmlns="http://www.w3.org/2000/svg"
   viewBox="0 0 260.04001 45.333332"
   height="45.333332"
   width="260.04001"
   xml:space="preserve"
   id="svg2"
   version="1.1"><metadata
     id="metadata8"><rdf:RDF><cc:Work
         rdf:about=""><dc:format>image/svg+xml</dc:format><dc:type
           rdf:resource="http://purl.org/dc/dcmitype/StillImage" /></cc:Work></rdf:RDF></metadata><defs
     id="defs6" /><g
     transform="matrix(1.3333333,0,0,-1.3333333,0,45.333333)"
     id="g10"><g
       transform="scale(0.1)"
       id="g12"><path
         id="path14"
         style="fill:#100f0d;fill-opacity:1;fill-rule:nonzero;stroke:none"
         d="m 79.8359,322.145 c 9.8047,0 19.1329,-1.403 28.0121,-4.2 8.867,-2.804 15.289,-5.605 19.257,-8.406 l 5.954,-4.203 10.156,13.656 h 1.746 l 5.605,-67.23 h -2.453 c -2.336,16.574 -9.226,32.093 -20.656,46.574 -11.441,14.473 -27.316,21.707 -47.6211,21.707 -13.3086,0 -23.9336,-3.969 -31.8671,-11.902 -7.9375,-7.942 -11.9024,-17.746 -11.9024,-29.414 0,-11.907 4.2578,-21.946 12.7774,-30.114 8.5195,-8.172 18.789,-14.828 30.8125,-19.961 12.0234,-5.136 24.0427,-10.625 36.0667,-16.457 12.019,-5.84 22.289,-14.066 30.816,-24.683 8.52,-10.625 12.781,-23.758 12.781,-39.399 0,-21.941 -7.941,-38.98 -23.812,-51.1208 -15.879,-12.1367 -35.25,-18.2031 -58.1252,-18.2031 -11.4414,0 -22.293,1.5703 -32.5664,4.7265 -10.2695,3.1446 -17.7422,6.3555 -22.4101,9.6289 L 15.7578,97.6953 4.90234,84.043 H 3.5 L 0,156.875 h 2.10156 c 1.86328,-21.25 9.21874,-39.219 22.05864,-53.926 12.832,-14.7068 30.5742,-22.0584 53.2226,-22.0584 17.5117,0 30.9922,4.5469 40.4452,13.6602 9.453,9.1012 14.18,21.3472 14.18,36.7582 0,10.976 -2.977,20.546 -8.934,28.714 -5.949,8.168 -13.363,14.469 -22.234,18.907 -8.8712,4.433 -18.4377,9.16 -28.7111,14.183 -10.2734,5.016 -19.8437,9.918 -28.7109,14.707 -8.8711,4.778 -16.2852,11.668 -22.2383,20.66 -5.9492,8.981 -8.9297,19.547 -8.9297,31.688 0,18.207 6.4219,33.09 19.2656,44.648 12.8282,11.551 28.9375,17.329 48.3203,17.329" /><path
         id="path16"
         style="fill:#100f0d;fill-opacity:1;fill-rule:nonzero;stroke:none"
         d="m 244.934,81.582 c 17.972,0 30.636,7.3633 37.992,22.07 7.351,14.707 11.027,35.938 11.027,63.727 0,25.672 -3.211,45.809 -9.629,60.398 -6.426,14.586 -17.566,21.887 -33.441,21.887 -13.305,0 -24.399,-4.785 -33.262,-14.355 -8.875,-9.579 -13.308,-24.512 -13.308,-44.821 v -56.726 c 0,-17.512 3.675,-30.586 11.031,-39.2112 7.351,-8.6524 17.211,-12.9688 29.59,-12.9688 z m 11.55,171.582 c 21.477,0 38.633,-7.879 51.477,-23.633 12.836,-15.761 19.258,-36.593 19.258,-62.504 0,-25.211 -7.473,-46.226 -22.41,-63.023 -14.942,-16.8165 -33.5,-25.2149 -55.672,-25.2149 -17.746,0 -32.692,7.9297 -44.824,23.8089 V 35.7227 c 0,-14.4727 1.339,-23.5157 4.027,-27.14848 2.68,-3.61328 10.211,-5.76953 22.59,-6.47266 V 0 h -81.242 v 2.10156 c 11.207,0.9336 18.148,3.26953 20.835,7 2.68,3.74224 4.028,12.50004 4.028,26.26954 V 209.395 c 0,11.668 -1.578,19.257 -4.727,22.757 -3.152,3.5 -10.101,5.254 -20.836,5.254 v 2.102 c 6.535,0.226 14.41,1.519 23.633,3.851 9.227,2.336 16.867,4.551 22.942,6.657 l 8.75,3.148 v -29.062 c 12.605,19.375 29.996,29.062 52.171,29.062" /><path
         id="path18"
         style="fill:#100f0d;fill-opacity:1;fill-rule:nonzero;stroke:none"
         d="m 388.18,85.4375 c 12.367,0 22.523,4.2031 30.465,12.6094 7.925,8.3981 11.902,19.3751 11.902,32.9101 v 39.219 l -40.27,-12.254 c -22.175,-6.535 -33.265,-20.078 -33.265,-40.617 0,-21.2503 10.386,-31.8675 31.168,-31.8675 z m 99.093,16.1055 1.75,-0.352 c -0.234,-0.703 -0.468,-1.5113 -0.703,-2.441 -0.234,-0.9375 -1.109,-2.6953 -2.621,-5.2539 -1.523,-2.5781 -3.215,-4.7852 -5.078,-6.6602 -1.871,-1.8632 -4.613,-3.6132 -8.226,-5.2539 -3.625,-1.6211 -7.532,-2.4414 -11.735,-2.4414 -18.211,0 -28.008,10.7305 -29.41,32.2074 -4.906,-10.508 -12.258,-18.555 -22.062,-24.1605 -9.801,-5.6055 -20.782,-8.3984 -32.915,-8.3984 -15.878,0 -28.246,3.3789 -37.117,10.1562 -8.875,6.7578 -13.304,16.2187 -13.304,28.3597 0,10.273 4.027,18.144 12.078,23.633 8.054,5.488 20.836,10.8 38.343,15.937 l 54.274,15.754 v 26.609 c 0,17.739 -2.688,30.641 -8.051,38.696 -5.379,8.05 -14.707,12.082 -28.016,12.082 -18.207,0 -28.832,-9.575 -31.863,-28.715 -0.699,-4.199 -1.285,-7.238 -1.754,-9.106 -0.468,-1.867 -1.285,-4.203 -2.445,-7 -1.172,-2.8 -2.691,-4.789 -4.555,-5.957 -1.871,-1.168 -4.199,-1.75 -7.004,-1.75 -3.972,0 -7.175,1.457 -9.629,4.375 -2.449,2.922 -3.675,6.36 -3.675,10.332 0,10.27 5.476,19.606 16.457,28.016 10.968,8.402 27.894,12.602 50.769,12.602 39.688,0 59.532,-15.875 59.532,-47.618 v -95.937 c 0,-7.012 0.925,-11.9142 2.796,-14.7072 1.868,-2.8125 5.133,-4.207 9.805,-4.207 3.27,0 6.129,0.9257 8.578,2.8007 2.453,1.8672 4.031,3.7305 4.731,5.6055 l 1.05,2.793" /><path
         id="path20"
         style="fill:#100f0d;fill-opacity:1;fill-rule:nonzero;stroke:none"
         d="m 532.125,253.516 v -45.871 c 3.73,13.07 9.395,23.921 16.98,32.566 7.583,8.633 16.985,12.953 28.192,12.953 5.828,0 10.906,-1.461 15.23,-4.375 4.321,-2.922 6.477,-7.066 6.477,-12.434 0,-4.437 -1.172,-7.996 -3.5,-10.675 -2.34,-2.688 -5.371,-4.032 -9.109,-4.032 -5.372,0 -10.149,3.379 -14.352,10.153 -4.199,6.773 -8.758,10.156 -13.652,10.156 -6.078,0 -11.559,-5.195 -16.461,-15.578 -4.903,-10.395 -7.356,-25.387 -7.356,-44.996 v -60.231 c 0,-15.175 1.344,-24.6872 4.031,-28.5348 2.68,-3.8477 10.208,-6.1328 22.583,-6.8281 V 84.043 h -81.239 v 1.7461 c 11.438,0.9297 18.442,3.3828 21.012,7.3554 2.562,3.9649 3.852,13.1835 3.852,27.6565 v 88.594 c 0,11.906 -1.52,19.546 -4.555,22.933 -3.035,3.379 -10.039,5.078 -21.004,5.078 v 2.102 c 6.531,0.226 14.18,1.519 22.934,3.851 8.75,2.336 15.925,4.551 21.535,6.657 l 8.402,3.5" /><path
         id="path22"
         style="fill:#100f0d;fill-opacity:1;fill-rule:nonzero;stroke:none"
         d="m 640.703,289.23 v -41.32 h 46.57 v -2.449 h -46.57 V 120.105 c 0,-21.2378 7.699,-31.8628 23.11,-31.8628 5.367,0 10.445,1.2305 15.23,3.6719 4.785,2.4609 8.23,4.9609 10.332,7.5273 l 3.152,3.5076 1.047,-1.758 c -1.172,-1.6285 -2.859,-3.6715 -5.078,-6.1246 -2.219,-2.4492 -7.117,-5.7695 -14.707,-9.9766 -7.59,-4.1992 -15.582,-6.3007 -23.984,-6.3007 -25.91,0 -38.867,13.1836 -38.867,39.5699 V 245.461 H 592.73 v 1.75 c 9.106,2.102 18.208,7.18 27.313,15.234 9.102,8.051 15.406,16.977 18.906,26.785 h 1.754" /><path
         id="path24"
         style="fill:#100f0d;fill-opacity:1;fill-rule:nonzero;stroke:none"
         d="m 751.98,85.4375 c 12.375,0 22.524,4.2031 30.461,12.6094 7.942,8.3981 11.914,19.3751 11.914,32.9101 v 39.219 l -40.273,-12.254 c -22.18,-6.535 -33.262,-20.078 -33.262,-40.617 0,-21.2503 10.379,-31.8675 31.16,-31.8675 z m 99.094,16.1055 1.758,-0.352 c -0.234,-0.703 -0.477,-1.5113 -0.703,-2.441 -0.234,-0.9375 -1.113,-2.6953 -2.625,-5.2539 -1.524,-2.5781 -3.215,-4.7852 -5.078,-6.6602 -1.867,-1.8632 -4.621,-3.6132 -8.235,-5.2539 -3.625,-1.6211 -7.519,-2.4414 -11.726,-2.4414 -18.203,0 -28.012,10.7305 -29.414,32.2074 -4.906,-10.508 -12.258,-18.555 -22.063,-24.1605 -9.804,-5.6055 -20.781,-8.3984 -32.91,-8.3984 -15.879,0 -28.254,3.3789 -37.117,10.1562 -8.879,6.7578 -13.305,16.2187 -13.305,28.3597 0,10.273 4.028,18.144 12.082,23.633 8.047,5.488 20.828,10.8 38.34,15.937 l 54.277,15.754 v 26.609 c 0,17.739 -2.683,30.641 -8.054,38.696 -5.371,8.05 -14.707,12.082 -28.02,12.082 -18.203,0 -28.828,-9.575 -31.863,-28.715 -0.695,-4.199 -1.281,-7.238 -1.75,-9.106 -0.469,-1.867 -1.277,-4.203 -2.449,-7 -1.172,-2.8 -2.688,-4.789 -4.551,-5.957 -1.875,-1.168 -4.199,-1.75 -7.004,-1.75 -3.976,0 -7.18,1.457 -9.629,4.375 -2.449,2.922 -3.672,6.36 -3.672,10.332 0,10.27 5.481,19.606 16.453,28.016 10.969,8.402 27.895,12.602 50.774,12.602 39.68,0 59.519,-15.875 59.519,-47.618 v -95.937 c 0,-7.012 0.93,-11.9142 2.805,-14.7072 1.863,-2.8125 5.137,-4.207 9.805,-4.207 3.269,0 6.133,0.9257 8.586,2.8007 2.449,1.8672 4.019,3.7305 4.722,5.6055 l 1.047,2.793" /><path
         id="path26"
         style="fill:#100f0d;fill-opacity:1;fill-rule:nonzero;stroke:none"
         d="M 995.332,314.793 H 970.469 V 192.59 h 23.469 c 18.902,0 33.142,5.656 42.712,16.98 9.57,11.321 14.36,26.438 14.36,45.348 0,39.918 -18.56,59.875 -55.678,59.875 z m 0.352,-124.656 h -25.215 v -69.336 c 0,-15.176 1.406,-24.7463 4.211,-28.7112 2.8,-3.9648 10.379,-5.9453 22.754,-5.9453 V 84.043 h -90.332 v 1.7461 c 14.226,0.6953 22.753,2.6875 25.554,5.9492 2.805,3.2734 4.207,12.9567 4.207,29.0627 v 159.328 c 0,16.101 -1.465,25.789 -4.383,29.062 -2.917,3.266 -11.375,5.254 -25.378,5.95 v 1.754 h 88.23 c 28.948,0 51.538,-5.313 67.758,-15.934 16.22,-10.625 24.34,-25.734 24.34,-45.348 0,-20.078 -8.76,-36.008 -26.27,-47.793 -17.5,-11.789 -39.33,-17.683 -65.476,-17.683" /><path
         id="path28"
         style="fill:#100f0d;fill-opacity:1;fill-rule:nonzero;stroke:none"
         d="M 1127.72,340 V 120.801 c 0,-14.473 1.28,-23.6916 3.86,-27.6565 2.56,-3.9726 9.45,-6.4257 20.66,-7.3554 V 84.043 h -76.69 v 1.7461 c 10.5,0.6953 16.98,2.9804 19.43,6.8281 2.45,3.8476 3.68,13.2418 3.68,28.1838 v 174.383 c 0,12.371 -1.4,20.363 -4.21,23.984 -2.79,3.621 -9.79,5.426 -21,5.426 v 1.402 c 7,0.231 15,1.516 23.98,3.852 8.99,2.336 16.29,4.668 21.89,7.004 l 8.4,3.148" /><path
         id="path30"
         style="fill:#100f0d;fill-opacity:1;fill-rule:nonzero;stroke:none"
         d="m 1204.43,85.4375 c 12.38,0 22.53,4.2031 30.47,12.6094 7.93,8.3981 11.91,19.3751 11.91,32.9101 v 39.219 l -40.28,-12.254 c -22.17,-6.535 -33.26,-20.078 -33.26,-40.617 0,-21.2503 10.39,-31.8675 31.16,-31.8675 z m 99.11,16.1055 1.74,-0.352 c -0.23,-0.703 -0.48,-1.5113 -0.7,-2.441 -0.23,-0.9375 -1.11,-2.6953 -2.63,-5.2539 -1.51,-2.5781 -3.21,-4.7852 -5.07,-6.6602 -1.87,-1.8632 -4.61,-3.6132 -8.24,-5.2539 -3.61,-1.6211 -7.52,-2.4414 -11.72,-2.4414 -18.21,0 -28.01,10.7305 -29.42,32.2074 -4.9,-10.508 -12.25,-18.555 -22.05,-24.1605 -9.81,-5.6055 -20.78,-8.3984 -32.92,-8.3984 -15.88,0 -28.25,3.3789 -37.12,10.1562 -8.88,6.7578 -13.3,16.2187 -13.3,28.3597 0,10.273 4.02,18.144 12.08,23.633 8.06,5.488 20.84,10.8 38.34,15.937 l 54.28,15.754 v 26.609 c 0,17.739 -2.69,30.641 -8.06,38.696 -5.37,8.05 -14.71,12.082 -28.01,12.082 -18.21,0 -28.84,-9.575 -31.86,-28.715 -0.71,-4.199 -1.29,-7.238 -1.76,-9.106 -0.47,-1.867 -1.28,-4.203 -2.44,-7 -1.18,-2.8 -2.7,-4.789 -4.55,-5.957 -1.88,-1.168 -4.21,-1.75 -7.01,-1.75 -3.97,0 -7.18,1.457 -9.63,4.375 -2.45,2.922 -3.68,6.36 -3.68,10.332 0,10.27 5.48,19.606 16.46,28.016 10.97,8.402 27.89,12.602 50.77,12.602 39.69,0 59.53,-15.875 59.53,-47.618 v -95.937 c 0,-7.012 0.93,-11.9142 2.81,-14.7072 1.85,-2.8125 5.12,-4.207 9.79,-4.207 3.27,0 6.13,0.9257 8.58,2.8007 2.46,1.8672 4.03,3.7305 4.73,5.6055 l 1.06,2.793" /><path
         id="path32"
         style="fill:#100f0d;fill-opacity:1;fill-rule:nonzero;stroke:none"
         d="m 1371.6,251.414 c -25.68,0 -40.26,-21.133 -43.77,-63.383 h 74.23 c 2.1,5.606 3.15,12.61 3.15,21.012 0,28.242 -11.2,42.371 -33.61,42.371 z m 9.45,-168.0742 c 14.01,0 25.33,3.3204 33.97,9.9805 8.63,6.6524 14.71,14.2967 18.21,22.9297 h 2.1 c -3.74,-9.57 -10.51,-18.2031 -20.31,-25.9062 -9.81,-7.7071 -23.11,-11.5547 -39.91,-11.5547 -24.76,0 -44.53,7.7539 -59.36,23.2809 -14.82,15.528 -22.23,36.25 -22.23,62.153 0,24.976 7.47,46.047 22.41,63.203 14.93,17.16 33.49,25.738 55.67,25.738 19.61,0 35.13,-5.898 46.57,-17.68 11.44,-11.793 17.51,-28.543 18.21,-50.25 h -108.9 c -0.47,-8.871 -0.7,-15.992 -0.7,-21.355 0,-53.703 18.09,-80.5392 54.27,-80.5392" /><path
         id="path34"
         style="fill:#100f0d;fill-opacity:1;fill-rule:nonzero;stroke:none"
         d="m 1490.44,253.164 c 7,0 13.77,-0.875 20.31,-2.625 6.53,-1.75 11.2,-3.449 14.01,-5.078 l 4.55,-2.453 7.34,6.305 h 1.41 l 4.2,-43.067 h -2.1 c -1.87,11.902 -6.95,22.461 -15.23,31.688 -8.29,9.218 -19.32,13.828 -33.09,13.828 h -1.4 c -9.81,-0.235 -17.51,-2.797 -23.12,-7.703 -5.59,-4.899 -8.39,-12.141 -8.39,-21.711 0,-8.172 3.08,-15.231 9.27,-21.18 6.18,-5.953 13.66,-10.914 22.42,-14.883 8.75,-3.976 17.55,-8.176 26.43,-12.601 8.87,-4.442 16.4,-10.508 22.58,-18.215 6.19,-7.696 9.29,-16.934 9.29,-27.656 0,-14.942 -5.03,-26.915 -15.06,-35.8989 -10.04,-8.9844 -22.88,-13.4766 -38.53,-13.4766 -7.47,0 -14.94,1.1719 -22.4,3.4961 -7.48,2.3359 -13.08,4.668 -16.81,7.0117 l -5.25,3.1445 -9.1,-11.9023 h -1.41 l -3.49,51.1215 h 2.09 c 3.74,-13.77 10.39,-25.735 19.97,-35.8871 9.57,-10.1563 21.7,-15.2344 36.4,-15.2344 11.21,0 19.79,2.625 25.74,7.8789 5.96,5.2539 8.94,12.7736 8.94,22.5786 0,7.714 -3.05,14.472 -9.11,20.312 -6.08,5.84 -13.43,10.801 -22.06,14.883 -8.63,4.082 -17.28,8.457 -25.91,13.137 -8.64,4.66 -16,11.023 -22.06,19.082 -6.08,8.05 -9.1,17.562 -9.1,28.539 0,13.769 4.72,24.968 14.18,33.613 9.45,8.633 20.94,12.953 34.49,12.953" /><path
         id="path36"
         style="fill:#100f0d;fill-opacity:1;fill-rule:nonzero;stroke:none"
         d="m 1628.09,251.414 c -25.69,0 -40.28,-21.133 -43.77,-63.383 h 74.22 c 2.1,5.606 3.15,12.61 3.15,21.012 0,28.242 -11.2,42.371 -33.6,42.371 z m 9.45,-168.0742 c 14,0 25.32,3.3204 33.96,9.9805 8.64,6.6524 14.7,14.2967 18.21,22.9297 h 2.1 c -3.73,-9.57 -10.5,-18.2031 -20.31,-25.9062 -9.81,-7.7071 -23.11,-11.5547 -39.92,-11.5547 -24.74,0 -44.53,7.7539 -59.34,23.2809 -14.84,15.528 -22.24,36.25 -22.24,62.153 0,24.976 7.47,46.047 22.41,63.203 14.93,17.16 33.49,25.738 55.68,25.738 19.6,0 35.12,-5.898 46.56,-17.68 11.43,-11.793 17.51,-28.543 18.21,-50.25 h -108.9 c -0.46,-8.871 -0.7,-15.992 -0.7,-21.355 0,-53.703 18.09,-80.5392 54.28,-80.5392" /><path
         id="path38"
         style="fill:#100f0d;fill-opacity:1;fill-rule:nonzero;stroke:none"
         d="m 1845.14,120.801 c 0,-14.473 1.28,-23.6916 3.84,-27.6565 2.57,-3.9726 9.57,-6.4257 21.02,-7.3554 V 84.043 h -77.38 v 1.7461 c 10.5,0.6953 16.91,2.9804 19.26,6.8281 2.33,3.8476 3.5,13.2418 3.5,28.1838 v 72.836 c 0,18.672 -2.69,32.152 -8.06,40.445 -5.37,8.281 -14,12.434 -25.91,12.434 -11.91,0 -22.06,-4.207 -30.46,-12.61 -8.41,-8.402 -12.61,-20.308 -12.61,-35.718 v -77.387 c 0,-14.473 1.28,-23.6916 3.85,-27.6565 2.57,-3.9726 9.46,-6.4257 20.66,-7.3554 V 84.043 h -77.38 v 1.7461 c 10.5,0.6953 16.98,2.9804 19.43,6.8281 2.45,3.8476 3.68,13.2418 3.68,28.1838 v 87.191 c 0,11.91 -1.58,19.723 -4.73,23.461 -3.15,3.735 -10.1,5.602 -20.83,5.602 v 2.105 c 6.53,0.231 14.41,1.512 23.63,3.848 9.22,2.336 16.87,4.668 22.94,7.008 l 8.75,3.148 v -32.562 c 12.37,21.707 31.16,32.562 56.38,32.562 16.33,0 28.82,-4.144 37.46,-12.426 8.63,-8.293 12.96,-20.488 12.96,-36.597 v -83.34" /><path
         id="path40"
         style="fill:#100f0d;fill-opacity:1;fill-rule:nonzero;stroke:none"
         d="m 1897.41,289.23 v -41.32 h 46.57 v -2.449 h -46.57 V 120.105 c 0,-21.2378 7.71,-31.8628 23.12,-31.8628 5.36,0 10.44,1.2305 15.23,3.6719 4.78,2.4609 8.22,4.9609 10.32,7.5273 l 3.16,3.5076 1.05,-1.758 c -1.17,-1.6285 -2.86,-3.6715 -5.08,-6.1246 -2.22,-2.4492 -7.12,-5.7695 -14.7,-9.9766 -7.59,-4.1992 -15.59,-6.3007 -23.99,-6.3007 -25.91,0 -38.86,13.1836 -38.86,39.5699 v 127.102 h -18.22 v 1.75 c 9.1,2.102 18.22,7.18 27.32,15.234 9.1,8.051 15.41,16.977 18.9,26.785 h 1.75" /></g></g></svg>